<?xml version="1.0" encoding="UTF-8"?>
<svg id="logo_ruesma" data-name="logo ruesma" xmlns="http://www.w3.org/2000/svg" viewBox="0 0 748.95 288.44">
  <defs>
    <style>
      .cls-2 { fill: #9f2842; }
      .cls-3 { fill: #7b868c; }
    </style>
  </defs>
  <g>
    <rect class="cls-2" x="249.71" y="135.63" width="74.5" height="18.83"/>
    <rect class="cls-2" x="249.71" y="175.73" width="74.5" height="18.83"/>
    <g>
      <path class="cls-2" d="M114.01,116.21c-4.16-2.27-8.52-3.6-14.95-3.6-12.3,0-19.49,8.71-19.49,25.55v56.77h-19.49V95.58h19.49v9.46c4.54-6.62,12.87-11.54,22.71-11.54,7.95,0,12.87,1.51,16.84,4.16l-5.11,18.55Z"/>
      <path class="cls-2" d="M198.79,194.94v-9.46c-4.92,7.19-14.76,11.54-24.98,11.54-23.09,0-35.39-15.14-35.39-44.47v-56.96h19.49v56.21c0,20.06,7.57,27.25,20.44,27.25s20.44-9.27,20.44-25.36v-58.1h19.49v99.35h-19.49Z"/>
    </g>
    <g>
      <path class="cls-2" d="M387.59,197.02c-13.44,0-28.01-5.3-38.04-12.68l8.89-14.76c9.27,6.43,19.68,9.84,28.95,9.84,12.3,0,18.17-3.97,18.17-10.98,0-7.57-8.71-11.17-23.09-16.65-21.38-8.33-29.14-15.52-29.14-31.22,0-17.79,14-27.06,33.87-27.06,12.49,0,24.79,4.54,33.69,10.98l-8.52,14.95c-8.14-5.68-16.27-8.52-25.74-8.52s-13.63,3.78-13.63,9.08c0,4.92,3.41,8.52,18.36,14.38,22.14,8.52,33.5,14.57,33.5,33.31,0,21.95-17.79,29.33-37.28,29.33Z"/>
      <path class="cls-2" d="M565.29,194.94v-56.21c0-20.06-6.25-27.25-19.11-27.25s-19.11,9.27-19.11,25.36v58.1h-19.49v-56.21c0-20.06-6.25-27.25-19.11-27.25s-19.11,9.27-19.11,25.36v58.1h-19.49V95.58h19.49v9.46c4.92-7.19,13.44-11.54,23.66-11.54,13.44,0,21.95,5.11,27.25,14.57,7.19-8.89,14.95-14.57,30.47-14.57,23.09,0,34.06,15.14,34.06,44.47v56.96h-19.49Z"/>
      <path class="cls-2" d="M669.76,194.94v-9.84c-6.81,6.81-16.47,11.92-27.25,11.92-16.09,0-34.44-9.08-34.44-33.5,0-22.14,17.03-32.17,39.55-32.17,9.27,0,16.65,1.33,22.14,3.79v-7.38c0-10.79-6.62-16.84-18.74-16.84-10.22,0-18.17,1.89-25.93,6.25l-7.57-14.76c9.46-5.87,20.06-8.89,34.06-8.89,22.14,0,37.28,10.79,37.28,33.31v68.13h-19.11Zm0-42.39c-5.3-2.65-12.11-4.35-22.71-4.35-12.49,0-20.44,5.68-20.44,14.76,0,9.84,6.25,16.46,19.11,16.46,10.41,0,19.49-6.43,24.03-12.68v-14.19Z"/>
    </g>
    <rect class="cls-3" x="249.71" y="95.53" width="74.5" height="18.83"/>
  </g>
</svg>
